<svg width="195" height="195" viewBox="0 0 195 195" fill="none" xmlns="http://www.w3.org/2000/svg">
<path d="M128.065 185.174C128.065 185.174 134.277 182.639 134.277 180.905C134.277 176.264 134.277 51.9526 134.277 49.0712C134.277 46.2816 133.424 44.4188 133.424 44.4188L128.065 47.3461V185.174Z" fill="url(#paint0_linear_240_1555)"/>
<path d="M128.064 185.174L77.9656 149.999V12.1726L128.064 47.346V185.174Z" fill="url(#paint1_linear_240_1555)"/>
<path d="M128.064 176.342L77.9656 141.169V21.005L128.064 56.1784V176.342Z" fill="#574B83"/>
<path d="M128.065 171.69L77.9656 136.516V25.6575L128.065 60.8309V171.69Z" fill="#574B83"/>
<path d="M86.089 10.1653C97.0779 17.8506 125.839 38.048 130.4 41.2414C132.467 42.689 133.424 44.4187 133.424 44.4187L128.065 47.3529L77.9656 12.1795C77.9656 12.1795 83.7192 8.50661 86.089 10.1653Z" fill="url(#paint2_linear_240_1555)"/>
<path d="M132.653 61.8976L129.689 63.9784V74.9168L132.653 72.8337V61.8976Z" fill="#574B83"/>
<path d="M132.653 75.8596L129.689 77.9427V105.059L132.653 102.974V75.8596Z" fill="#574B83"/>
<path d="M128.87 41.4639C129.221 41.6911 128.971 41.5259 129.29 41.7553C129.808 42.1223 130.542 43.3382 129.184 44.2926C127.344 45.5819 125.869 44.5358 125.516 44.2972C124.814 43.8269 125.167 44.0494 125.167 44.0494C125.167 44.0494 123.49 42.845 125.486 41.4639C126.8 40.5555 128.092 40.9592 128.87 41.4639Z" fill="#463E7C"/>
<path d="M123.144 38.6995C123.339 38.828 123.201 38.7339 123.378 38.8601C123.667 39.0665 124.077 39.7456 123.318 40.2778C122.292 40.9982 121.469 40.4132 121.272 40.2801C120.882 40.0186 121.079 40.1425 121.079 40.1425C121.079 40.1425 120.143 39.4726 121.256 38.6995C121.99 38.1925 122.71 38.4196 123.144 38.6995Z" fill="#463E7C"/>
<path d="M111.065 170.448L94.9627 159.251V155.635L111.065 166.833V170.448Z" fill="#463E7C"/>
<path d="M115.773 45.224L90.2574 27.4079V23.7924L115.773 41.6108V45.224Z" fill="#463E7C"/>
<g opacity="0.39" style="mix-blend-mode:soft-light">
<path d="M128.064 112.68V171.69L85.9858 142.146L128.064 112.68Z" fill="#FEFEFE"/>
</g>
<path d="M113.364 137.805L53.7121 95.2242V51.8608L113.364 94.4397V137.805Z" fill="url(#paint3_linear_240_1555)"/>
<path d="M113.359 137.805L118.259 134.642V91.2784L113.359 94.4397V137.805Z" fill="url(#paint4_linear_240_1555)"/>
<path d="M58.6124 48.6766H58.6101L53.7121 51.8815L113.359 94.4603H113.364L118.259 91.299L58.6124 48.6766Z" fill="url(#paint5_linear_240_1555)"/>
<g style="mix-blend-mode:soft-light">
<path d="M73.4163 77.7362L79.6792 100.356L101.583 92.9554L111.005 112.038V132.894L83.2099 113.102L55.9144 93.6987V82.2464L73.4163 77.7362Z" fill="#FEFEFE"/>
<path d="M81.4709 95.0751C80.7803 95.0522 80.1128 94.9398 79.4773 94.7471L75.4006 80.0211C77.0203 78.0138 79.436 76.7727 82.0926 76.8621C86.7634 77.0227 90.4111 81.2278 90.2413 86.2565C90.0669 91.283 86.1417 95.2334 81.4709 95.0751Z" fill="#FEFEFE"/>
</g>
<defs>
<linearGradient id="paint0_linear_240_1555" x1="546.178" y1="-585.249" x2="482.629" y2="-619.173" gradientUnits="userSpaceOnUse">
<stop stop-color="#3B3C97"/>
<stop offset="1" stop-color="#7070B4"/>
</linearGradient>
<linearGradient id="paint1_linear_240_1555" x1="401.711" y1="187.419" x2="401.711" y2="75.805" gradientUnits="userSpaceOnUse">
<stop stop-color="#857EBB"/>
<stop offset="1" stop-color="#B9B7DA"/>
</linearGradient>
<linearGradient id="paint2_linear_240_1555" x1="133.8" y1="10.0957" x2="79.8984" y2="8.82733" gradientUnits="userSpaceOnUse">
<stop stop-color="#A4A6D3"/>
<stop offset="1" stop-color="#6F6AB0"/>
</linearGradient>
<linearGradient id="paint3_linear_240_1555" x1="10.2641" y1="57.9258" x2="92.6988" y2="13.9193" gradientUnits="userSpaceOnUse">
<stop stop-color="#3B3C97"/>
<stop offset="1" stop-color="#7070B4"/>
</linearGradient>
<linearGradient id="paint4_linear_240_1555" x1="-105.04" y1="138.408" x2="-105.04" y2="108.391" gradientUnits="userSpaceOnUse">
<stop stop-color="#857EBB"/>
<stop offset="1" stop-color="#B9B7DA"/>
</linearGradient>
<linearGradient id="paint5_linear_240_1555" x1="53.2272" y1="49.0653" x2="116.006" y2="47.5881" gradientUnits="userSpaceOnUse">
<stop stop-color="#6F6AB0"/>
<stop offset="1" stop-color="#A4A6D3"/>
</linearGradient>
</defs>
</svg>
