<svg width="287" height="467" viewBox="0 0 287 467" fill="none" xmlns="http://www.w3.org/2000/svg">
<path d="M160.662 329.818C160.865 330.236 161.376 330.637 162.189 330.963L196.481 344.671C198.651 345.539 202.19 345.561 204.377 344.713C206.018 344.075 206.426 343.131 205.613 342.335C205.342 342.068 204.933 341.819 204.395 341.601L170.104 327.89C169.018 327.456 167.589 327.234 166.161 327.228C164.729 327.218 163.3 327.427 162.204 327.852C160.839 328.382 160.326 329.124 160.662 329.818Z" fill="#9DB2D9"/>
<path d="M218.899 353.591C220.216 354.117 222.033 354.325 223.74 354.216C224.817 354.148 225.85 353.954 226.685 353.634C228.835 352.796 228.847 351.425 226.7 350.565C224.558 349.708 221.074 349.691 218.925 350.53C216.773 351.364 216.759 352.737 218.899 353.591Z" fill="#9DB2D9"/>
<path d="M32.6173 428.31C31.9122 428.697 31.1505 429.07 30.3401 429.435C31.1509 429.07 31.9122 428.696 32.6173 428.31Z" fill="#9DB2D9"/>
<path d="M34.5832 427.127C34.1649 427.402 33.6935 427.673 33.2261 427.94C33.6931 427.674 34.1649 427.403 34.5832 427.127Z" fill="#9DB2D9"/>
<path d="M196.919 161.14C189.702 160.222 185.168 165.034 185.168 175.342L184.958 329.86L206.16 338.65C206.16 310.922 206.16 172.29 206.16 172.29C206.16 165.262 202.02 161.788 196.919 161.14Z" fill="#C7D3DB"/>
<path d="M198.988 154.754C197.38 154.343 194.843 153.863 192.12 153.963C191.708 153.98 191.291 154.004 190.877 154.045C183.378 154.841 176.626 162.496 175.781 170.345L175.769 170.422C175.716 170.944 175.687 171.463 175.687 171.981L175.415 379.088L175.381 379.075C175.162 383.716 171.75 386.826 169.19 387.966C164.316 390.134 115.894 406.508 115.894 406.508L0 357.934V367.247L116.246 414.908C116.246 414.908 172.204 396.467 177.491 394.762C183.457 392.834 184.019 385.887 184.019 385.887L184.098 329.906L184.308 175.388C184.308 165.08 188.842 160.267 196.059 161.186C201.16 161.833 205.3 165.308 205.3 172.335C205.3 172.335 205.3 310.968 205.3 338.696L213.093 341.926C213.093 322.396 213.093 172.794 213.093 172.794C212.865 162.997 206.52 156.857 198.988 154.754Z" fill="#B5C1C9"/>
<path d="M170.05 387.921C172.61 386.78 176.022 383.671 176.242 379.03L176.275 379.043L176.547 171.936C176.547 171.418 176.576 170.899 176.63 170.376L176.641 170.3C177.486 162.45 184.238 154.796 191.738 154C192.154 153.955 192.57 153.93 192.981 153.917C195.703 153.818 198.24 154.298 199.848 154.709C200.948 154.99 201.616 155.237 201.616 155.237L84.1215 112.555C84.1215 112.555 79.8079 110.658 76.5848 110.514C68.2086 110.142 61.1165 116.629 60.7384 125.005L60.5191 125.689C60.5191 125.859 60.5191 300.186 60.5191 328.017L60.4497 327.991C60.4497 327.991 60.5867 333.599 55.7282 335.995C53.4828 337.1 0.860168 357.888 0.860168 357.888L116.754 406.463C116.754 406.463 165.176 390.088 170.05 387.921ZM143.724 293.492L128.536 286.927V280.631L143.724 287.2V293.492ZM164.303 301.99L149.116 295.424V289.129L164.303 295.697V301.99ZM164.303 291.455L138.202 279.999V273.703L164.303 285.163V291.455ZM138.202 172.518L164.303 183.979V190.273L138.202 178.812V172.518ZM101.36 156.715L132.489 170.124V176.421L101.36 163.009V156.715ZM101.36 168.516L164.509 195.47V201.767L101.36 174.812V168.516ZM138.202 239.655L164.303 251.114V257.409L138.202 245.949V239.655ZM128.537 219.788V213.494L143.724 220.06V226.354L128.537 219.788ZM149.116 228.288V221.993L164.303 228.561V234.856L149.116 228.288ZM138.202 212.863V206.566L164.303 218.027V224.319L138.202 212.863ZM101.36 190.763L132.489 204.172V210.464L101.36 197.057V190.763ZM101.36 201.692L124.007 211.51V217.805L101.36 207.988V201.692ZM101.36 223.853L132.489 237.26V243.556L101.36 230.147V223.853ZM101.36 235.654L164.509 262.608V268.902L101.36 241.947V235.654ZM101.36 257.902L132.489 271.31V277.603L101.36 264.194V257.902ZM101.36 268.83L124.007 278.645V284.941L101.36 275.123V268.83ZM71.397 145.119L88.3624 152.37V169.337L71.397 162.085V145.119ZM71.397 179.167L88.3624 186.42V203.385L71.397 196.134V179.167ZM71.397 212.254L88.3624 219.508V236.475L71.397 229.222V212.254ZM71.397 246.305L88.3624 253.554V270.523L71.397 263.271V246.305ZM109.044 353.932C95.6424 349.576 84.6679 332.365 84.5206 315.492C84.3736 298.62 95.1075 288.459 108.512 292.816C121.907 297.168 132.89 314.383 133.037 331.256C133.187 348.129 122.443 358.283 109.044 353.932Z" fill="#DDE5E9"/>
<path d="M88.3624 152.37L71.397 145.119V162.084L88.3624 169.337V152.37Z" fill="#C7D3DB"/>
<path d="M164.509 195.47L101.36 168.516V174.812L164.509 201.766V195.47Z" fill="#C7D3DB"/>
<path d="M132.49 170.125L101.36 156.715V163.009L132.49 176.421V170.125Z" fill="#C7D3DB"/>
<path d="M164.303 183.979L138.202 172.519V178.812L164.303 190.273V183.979Z" fill="#C7D3DB"/>
<path d="M88.3624 186.419L71.397 179.167V196.134L88.3624 203.385V186.419Z" fill="#C7D3DB"/>
<path d="M132.49 204.172L101.36 190.763V197.057L132.49 210.464V204.172Z" fill="#C7D3DB"/>
<path d="M124.007 211.51L101.36 201.692V207.988L124.007 217.805V211.51Z" fill="#C7D3DB"/>
<path d="M164.303 228.561L149.116 221.993V228.288L164.303 234.856V228.561Z" fill="#C7D3DB"/>
<path d="M143.724 220.06L128.537 213.494V219.788L143.724 226.354V220.06Z" fill="#C7D3DB"/>
<path d="M164.303 218.027L138.202 206.566V212.863L164.303 224.319V218.027Z" fill="#C7D3DB"/>
<path d="M88.3624 219.508L71.397 212.254V229.223L88.3624 236.475V219.508Z" fill="#C7D3DB"/>
<path d="M164.509 262.608L101.36 235.655V241.947L164.509 268.902V262.608Z" fill="#C7D3DB"/>
<path d="M132.49 237.259L101.36 223.853V230.147L132.49 243.556V237.259Z" fill="#C7D3DB"/>
<path d="M164.303 251.114L138.202 239.655V245.948L164.303 257.409V251.114Z" fill="#C7D3DB"/>
<path d="M88.3624 253.554L71.397 246.305V263.271L88.3624 270.523V253.554Z" fill="#C7D3DB"/>
<path d="M132.49 271.31L101.36 257.902V264.194L132.49 277.604V271.31Z" fill="#C7D3DB"/>
<path d="M124.007 278.645L101.36 268.83V275.123L124.007 284.941V278.645Z" fill="#C7D3DB"/>
<path d="M149.116 295.424L164.303 301.99V295.697L149.116 289.129V295.424Z" fill="#C7D3DB"/>
<path d="M128.537 286.927L143.724 293.492V287.2L128.537 280.631V286.927Z" fill="#C7D3DB"/>
<path d="M138.202 279.999L164.303 291.455V285.163L138.202 273.703V279.999Z" fill="#C7D3DB"/>
<path d="M133.037 331.256C132.89 314.383 121.907 297.168 108.512 292.816C95.1071 288.459 84.3733 298.62 84.5206 315.492C84.6675 332.365 95.6425 349.576 109.044 353.932C122.443 358.283 133.187 348.129 133.037 331.256ZM114.845 340.416C113.636 341.302 112.109 341.621 110.283 341.39C110.289 342.059 110.296 342.672 110.302 343.158C110.305 343.741 109.407 343.755 108.521 343.47C107.663 343.19 106.818 342.629 106.814 342.029C106.811 341.586 106.806 341.018 106.799 340.406C105.099 339.658 103.588 338.578 102.281 337.125C100.678 335.337 99.4115 332.629 98.7824 330.624C98.4723 329.611 100.259 328.282 101.316 328.624C101.579 328.712 101.797 328.901 101.924 329.221C102.769 331.379 103.62 332.91 104.695 334.186C105.307 334.906 106.003 335.483 106.761 335.956C106.73 332.463 106.693 328.128 106.652 323.667C104.303 321.67 102.578 319.841 101.576 318.206C100.463 316.418 99.9088 314.46 99.8915 312.339C99.8656 309.548 100.621 307.518 102.172 306.244C103.34 305.278 104.783 304.912 106.492 305.134C106.486 304.403 106.482 303.706 106.475 303.118C106.469 302.401 107.278 302.338 108.12 302.612C109.02 302.903 109.953 303.582 109.96 304.251C109.963 304.827 109.97 305.522 109.976 306.269C111.351 306.955 112.581 307.861 113.641 309.032C115.135 310.673 116.218 312.914 116.933 315.037C117.432 316.504 115.751 317.407 114.633 317.039C114.276 316.925 113.974 316.684 113.82 316.286C113.197 314.691 112.518 313.194 111.556 312.078C111.096 311.533 110.578 311.082 110.017 310.695C110.046 313.895 110.079 317.662 110.114 321.534C112.917 323.689 114.819 325.641 115.804 327.419C116.798 329.213 117.311 331.419 117.333 334.04C117.361 337.046 116.535 339.165 114.845 340.416Z" fill="#F7C253"/>
<path d="M110.247 337.144C111.046 337.166 111.746 337.01 112.297 336.581C113.192 335.907 113.632 334.75 113.618 333.125C113.599 331.118 112.434 328.985 110.156 326.729C110.192 330.521 110.221 334.139 110.247 337.144Z" fill="#F7C253"/>
<path d="M104.943 310.088C104.143 310.756 103.739 311.767 103.751 313.151C103.762 314.503 104.177 315.756 104.987 316.902C105.35 317.417 105.902 318.014 106.612 318.663C106.58 315.407 106.554 312.24 106.528 309.507C105.929 309.539 105.399 309.716 104.943 310.088Z" fill="#F7C253"/>
<path d="M110.113 321.534C110.078 317.662 110.045 313.896 110.016 310.695C110.577 311.082 111.095 311.533 111.555 312.078C112.517 313.194 113.196 314.692 113.819 316.286C113.973 316.684 114.275 316.925 114.632 317.039C115.75 317.407 117.432 316.504 116.933 315.037C116.217 312.915 115.134 310.674 113.64 309.032C112.58 307.861 111.35 306.956 109.976 306.269C109.97 305.522 109.963 304.827 109.96 304.252C109.952 303.582 109.019 302.903 108.12 302.612C107.277 302.338 106.468 302.402 106.474 303.118C106.481 303.707 106.486 304.403 106.491 305.134C104.782 304.912 103.339 305.279 102.171 306.245C100.621 307.518 99.8649 309.549 99.8907 312.339C99.9081 314.461 100.462 316.418 101.575 318.206C102.578 319.842 104.303 321.67 106.652 323.668C106.692 328.128 106.73 332.463 106.76 335.956C106.003 335.483 105.306 334.906 104.695 334.187C103.619 332.91 102.768 331.379 101.923 329.221C101.796 328.901 101.578 328.712 101.315 328.624C100.258 328.283 98.4715 329.611 98.7817 330.625C99.4104 332.629 100.677 335.338 102.28 337.126C103.587 338.578 105.099 339.658 106.799 340.407C106.806 341.018 106.81 341.586 106.813 342.029C106.817 342.629 107.663 343.19 108.521 343.47C109.406 343.755 110.304 343.741 110.302 343.158C110.296 342.672 110.289 342.059 110.283 341.39C112.108 341.621 113.636 341.302 114.844 340.417C116.534 339.165 117.36 337.046 117.332 334.041C117.31 331.419 116.797 329.214 115.803 327.42C114.819 325.642 112.917 323.689 110.113 321.534ZM104.986 316.902C104.177 315.756 103.762 314.502 103.75 313.151C103.739 311.767 104.143 310.756 104.943 310.088C105.398 309.716 105.929 309.539 106.528 309.507C106.553 312.24 106.58 315.407 106.611 318.663C105.902 318.014 105.35 317.417 104.986 316.902ZM112.296 336.58C111.745 337.01 111.046 337.166 110.247 337.144C110.221 334.139 110.192 330.521 110.156 326.729C112.433 328.984 113.598 331.118 113.617 333.125C113.632 334.75 113.192 335.907 112.296 336.58Z" fill="white"/>
<path d="M269.276 150.787C268.745 150.96 268.153 150.959 267.524 150.731L258.474 147.45L243.646 198.838L257.482 194.689L270.234 150.506C269.892 150.611 269.557 150.712 269.217 150.813L269.276 150.787Z" fill="#C74888"/>
<path d="M282.539 41.8668L167.518 0.182956C166.914 -0.0348663 166.337 -0.0522145 165.823 0.0991536C161.212 1.48214 156.6 2.86661 151.99 4.24959L152.067 4.23372L152.293 4.18461L152.446 4.16283L152.688 4.15433L152.848 4.1573L153.117 4.18757L153.261 4.20935L153.684 4.33192L268.707 46.0157C270.853 46.7958 272.573 49.8332 272.537 52.7981L271.48 146.769C271.474 147.005 271.46 147.232 271.436 147.455L271.414 147.631C271.386 147.816 271.355 147.994 271.314 148.169L271.297 148.266C271.245 148.463 271.184 148.649 271.117 148.829L271.063 148.959L270.867 149.366L270.811 149.474L270.523 149.897L270.455 149.97L270.176 150.259L270.082 150.341L269.699 150.605L269.658 150.627L269.276 150.787L269.217 150.813C269.558 150.712 269.892 150.611 270.234 150.506C274.505 149.225 278.777 147.944 283.053 146.664C284.366 146.269 285.289 144.753 285.315 142.619L286.372 48.6495C286.407 45.6872 284.685 42.6458 282.539 41.8668Z" fill="#C74888"/>
<path d="M267.524 150.73C268.153 150.958 268.746 150.96 269.276 150.786L269.658 150.626L269.698 150.604L270.082 150.34L270.176 150.258L270.454 149.97L270.522 149.896L270.81 149.474L270.867 149.366L271.063 148.959L271.116 148.829C271.184 148.649 271.245 148.463 271.296 148.265L271.314 148.169C271.354 147.994 271.386 147.815 271.413 147.631L271.435 147.455C271.459 147.231 271.474 147.004 271.48 146.768L272.537 52.7977C272.573 49.8328 270.852 46.7954 268.706 46.0153L153.683 4.33151L153.261 4.20894L153.116 4.18716L152.848 4.15689L152.688 4.15394L152.445 4.16242L152.293 4.18421L152.066 4.23331C150.708 4.59106 149.753 6.12098 149.73 8.29293L148.67 102.26C148.635 105.225 150.352 108.263 152.502 109.044L216.706 132.313L243.646 198.837L258.474 147.449L267.524 150.73ZM178.796 78.0692L178.81 78.0777L178.367 78.1456L178.375 78.1397C177.334 78.2608 176.222 78.1283 175.065 77.71C169.468 75.6809 164.996 67.7736 165.085 60.045C165.172 52.3178 169.781 47.7014 175.382 49.7305C175.944 49.9339 176.493 50.1979 177.031 50.5136C181.829 53.3504 185.44 60.4444 185.361 67.3955C185.295 73.307 182.574 77.3825 178.796 78.0692ZM209.49 90.2684C208.352 90.4589 207.121 90.3462 205.837 89.8789C200.236 87.8513 195.768 79.9439 195.857 72.2153C195.942 64.4881 200.553 59.8718 206.152 61.9009C207.021 62.2165 207.862 62.6725 208.665 63.2477L208.651 63.2521C213.021 66.3803 216.209 73.0297 216.133 79.5644C216.068 85.5206 213.313 89.6249 209.49 90.2684ZM243.368 102.16C241.946 102.669 240.341 102.669 238.64 102.052C233.037 100.023 228.572 92.1173 228.659 84.3886C228.744 76.6615 233.356 72.0436 238.955 74.0742C239.224 74.1694 239.487 74.2846 239.748 74.4072C239.964 74.5095 240.181 74.6191 240.392 74.7402L240.378 74.7446C245.29 77.4892 249.015 84.6781 248.936 91.7374C248.877 97.1183 246.621 100.989 243.368 102.16Z" fill="#E465A1"/>
<path d="M208.651 63.2525C204.836 63.903 202.092 68.0029 202.023 73.9506C201.948 80.4808 205.126 87.1333 209.49 90.2684C213.313 89.6253 216.068 85.521 216.133 79.5649C216.209 73.0302 213.021 66.3807 208.651 63.2525Z" fill="white"/>
<path d="M202.023 73.9505C202.092 68.0033 204.837 63.903 208.651 63.2525L208.665 63.2481C207.862 62.6725 207.021 62.2169 206.152 61.9013C200.553 59.8722 195.943 64.4886 195.857 72.2157C195.768 79.9444 200.236 87.8517 205.837 89.8793C207.121 90.3467 208.352 90.4589 209.49 90.2688C205.126 87.1329 201.948 80.4804 202.023 73.9505Z" fill="#C74888"/>
<path d="M240.378 74.745C237.132 75.9261 234.886 79.7882 234.823 85.1588C234.743 92.2122 238.46 99.4114 243.368 102.16C246.621 100.989 248.877 97.1187 248.936 91.7378C249.015 84.6785 245.29 77.4892 240.378 74.745Z" fill="white"/>
<path d="M239.748 74.4076C239.966 74.5099 240.181 74.6195 240.392 74.7406C240.181 74.6195 239.964 74.5099 239.748 74.4076Z" fill="white"/>
<path d="M234.823 85.1588C234.886 79.7882 237.132 75.9261 240.378 74.745L240.392 74.7406C240.181 74.6195 239.966 74.5099 239.748 74.4076C239.487 74.285 239.224 74.1694 238.955 74.0746C233.356 72.044 228.745 76.6618 228.659 84.389C228.573 92.1176 233.037 100.024 238.64 102.053C240.34 102.67 241.946 102.67 243.368 102.161C238.46 99.4114 234.744 92.2122 234.823 85.1588Z" fill="#C74888"/>
<path d="M177.03 50.5139C173.257 51.2106 170.546 55.2946 170.48 61.2016C170.399 68.1472 174.002 75.2294 178.795 78.0692C182.573 77.3829 185.295 73.3074 185.36 67.3959C185.439 60.4448 181.828 53.3508 177.03 50.5139Z" fill="white"/>
<path d="M178.367 78.1457L178.81 78.0778L178.374 78.1398L178.367 78.1457Z" fill="white"/>
<path d="M170.48 61.2017C170.546 55.2946 173.257 51.2103 177.03 50.514C176.492 50.1983 175.943 49.9343 175.382 49.7309C169.78 47.7019 165.171 52.3182 165.085 60.0454C164.995 67.774 169.467 75.6813 175.064 77.7104C176.221 78.1287 177.333 78.2612 178.374 78.1401L178.81 78.0781L178.795 78.0696C174.002 75.2294 170.399 68.1473 170.48 61.2017Z" fill="#C74888"/>
<path d="M88.2443 467C88.4204 466.908 88.6061 466.817 88.8054 466.729C88.6064 466.817 88.4204 466.908 88.2443 467Z" fill="#F09C43"/>
<path d="M107.693 455.125L107.606 455.073L107.699 455.128L107.693 455.125Z" fill="#F09C43"/>
<path d="M107.713 455.135L107.693 455.125L107.699 455.128L107.713 455.135Z" fill="#EC8838"/>
</svg>
