<svg width="81" height="176" viewBox="0 0 81 176" fill="none" xmlns="http://www.w3.org/2000/svg">
<path d="M74.3524 175.439C74.3524 175.439 80.5648 172.904 80.5648 171.17C80.5648 166.529 80.5648 42.2175 80.5648 39.3361C80.5648 36.5465 79.7114 34.6837 79.7114 34.6837L74.3524 37.611V175.439Z" fill="url(#paint0_linear_240_1556)"/>
<path d="M74.3524 175.439L24.2534 140.263V2.4375L74.3524 37.6109V175.439Z" fill="url(#paint1_linear_240_1556)"/>
<path d="M74.3524 166.607L24.2534 131.433V11.2699L74.3524 46.4433V166.607Z" fill="#574B83"/>
<path d="M74.3524 161.954L24.2535 126.781V15.9224L74.3524 51.0958V161.954Z" fill="#574B83"/>
<path d="M32.3769 0.430154C43.3657 8.11545 72.1271 28.3129 76.6878 31.5063C78.7548 32.9539 79.7114 34.6836 79.7114 34.6836L74.3524 37.6178L24.2534 2.44439C24.2534 2.44439 30.0071 -1.22849 32.3769 0.430154Z" fill="url(#paint2_linear_240_1556)"/>
<path d="M78.9406 52.1625L75.9766 54.2433V65.1817L78.9406 63.0986V52.1625Z" fill="#574B83"/>
<path d="M78.9406 66.1245L75.9766 68.2076V95.324L78.9406 93.2387V66.1245Z" fill="#574B83"/>
<path d="M75.1576 31.7288C75.5086 31.9559 75.2586 31.7908 75.5774 32.0202C76.0959 32.3872 76.83 33.6031 75.4719 34.5575C73.632 35.8468 72.1569 34.8006 71.8036 34.5621C71.1016 34.0918 71.4549 34.3143 71.4549 34.3143C71.4549 34.3143 69.7779 33.1099 71.7738 31.7288C73.0883 30.8204 74.3799 31.2241 75.1576 31.7288Z" fill="#463E7C"/>
<path d="M69.4315 28.9644C69.6265 29.0929 69.4888 28.9988 69.6655 29.125C69.9545 29.3314 70.3652 30.0105 69.6058 30.5427C68.5804 31.2631 67.7568 30.6781 67.5595 30.545C67.1695 30.2835 67.3668 30.4074 67.3668 30.4074C67.3668 30.4074 66.4308 29.7375 67.5434 28.9644C68.2775 28.4574 68.9979 28.6845 69.4315 28.9644Z" fill="#463E7C"/>
<path d="M57.353 160.713L41.2506 149.516V145.9L57.353 157.098V160.713Z" fill="#463E7C"/>
<path d="M62.0605 35.4889L36.5453 17.6728V14.0573L62.0605 31.8757V35.4889Z" fill="#463E7C"/>
<g opacity="0.39" style="mix-blend-mode:soft-light">
<path d="M74.3524 102.945V161.954L32.2737 132.411L74.3524 102.945Z" fill="#FEFEFE"/>
</g>
<path d="M59.6516 128.07L8.62788e-07 85.4891V42.1257L59.6516 84.7046V128.07Z" fill="url(#paint3_linear_240_1556)"/>
<path d="M59.647 128.07L64.5473 124.907V81.5433L59.647 84.7046V128.07Z" fill="url(#paint4_linear_240_1556)"/>
<path d="M4.90024 38.9415H4.89794L6.95111e-06 42.1464L59.6471 84.7252H59.6517L64.5473 81.5639L4.90024 38.9415Z" fill="url(#paint5_linear_240_1556)"/>
<g style="mix-blend-mode:soft-light">
<path d="M19.7041 68.0011L25.9671 90.6211L47.8713 83.2203L57.2932 102.303V123.159L29.4977 103.367L2.2023 83.9636V72.5113L19.7041 68.0011Z" fill="#FEFEFE"/>
<path d="M27.7588 85.34C27.0682 85.3171 26.4006 85.2047 25.7652 85.012L21.6885 70.286C23.3082 68.2787 25.7239 67.0376 28.3805 67.127C33.0513 67.2876 36.6989 71.4927 36.5292 76.5214C36.3548 81.5479 32.4296 85.4983 27.7588 85.34Z" fill="#FEFEFE"/>
</g>
<defs>
<linearGradient id="paint0_linear_240_1556" x1="492.466" y1="-594.984" x2="428.917" y2="-628.908" gradientUnits="userSpaceOnUse">
<stop stop-color="#3B3C97"/>
<stop offset="1" stop-color="#7070B4"/>
</linearGradient>
<linearGradient id="paint1_linear_240_1556" x1="347.999" y1="177.684" x2="347.999" y2="66.0699" gradientUnits="userSpaceOnUse">
<stop stop-color="#857EBB"/>
<stop offset="1" stop-color="#B9B7DA"/>
</linearGradient>
<linearGradient id="paint2_linear_240_1556" x1="80.0879" y1="0.360642" x2="26.1862" y2="-0.907777" gradientUnits="userSpaceOnUse">
<stop stop-color="#A4A6D3"/>
<stop offset="1" stop-color="#6F6AB0"/>
</linearGradient>
<linearGradient id="paint3_linear_240_1556" x1="-43.4481" y1="48.1907" x2="38.9867" y2="4.18422" gradientUnits="userSpaceOnUse">
<stop stop-color="#3B3C97"/>
<stop offset="1" stop-color="#7070B4"/>
</linearGradient>
<linearGradient id="paint4_linear_240_1556" x1="-158.753" y1="128.673" x2="-158.753" y2="98.656" gradientUnits="userSpaceOnUse">
<stop stop-color="#857EBB"/>
<stop offset="1" stop-color="#B9B7DA"/>
</linearGradient>
<linearGradient id="paint5_linear_240_1556" x1="-0.484975" y1="39.3302" x2="62.2942" y2="37.853" gradientUnits="userSpaceOnUse">
<stop stop-color="#6F6AB0"/>
<stop offset="1" stop-color="#A4A6D3"/>
</linearGradient>
</defs>
</svg>
